<svg width="1250" height="560" viewBox="0 0 1250 560" xmlns="http://www.w3.org/2000/svg">
  <defs>
    <marker id="arrowhead" markerWidth="12" markerHeight="8" refX="10" refY="4" orient="auto">
      <polygon points="0 0, 12 4, 0 8" fill="#1f2937"/>
    </marker>
    <style>
      .bg { fill: #ffffff; }
      .section { fill: #eef2ff; stroke: #6366f1; stroke-width: 3; rx: 18; }
      .box { fill: #ffffff; stroke: #374151; stroke-width: 2.2; rx: 12; }
      .title { font-family: Arial, sans-serif; font-size: 18px; font-weight: 700; fill: #111827; }
      .label { font-family: Arial, sans-serif; font-size: 15px; font-weight: 700; fill: #111827; }
      .text { font-family: Arial, sans-serif; font-size: 14px; fill: #374151; }
      .small { font-family: Arial, sans-serif; font-size: 13px; fill: #4b5563; }
      .arrow { stroke: #1f2937; stroke-width: 2.8; fill: none; marker-end: url(#arrowhead); }
    </style>
  </defs>

  <!-- solid background so it looks good in dark mode -->
  <rect x="0" y="0" width="1250" height="560" class="bg"/>

  <!-- Left section -->
  <rect x="40" y="60" width="355" height="300" class="section"/>
  <text x="60" y="95" class="title">CI/CD DAG Deployment</text>

  <rect x="75" y="125" width="110" height="70" class="box"/>
  <text x="104" y="150" class="label">GitHub</text>
  <text x="88" y="173" class="small">airflow-dags repo</text>

  <rect x="225" y="125" width="130" height="70" class="box"/>
  <text x="246" y="150" class="label">CodePipeline</text>
  <text x="252" y="173" class="small">syncs repo</text>

  <rect x="150" y="255" width="140" height="75" class="box"/>
  <text x="200" y="281" class="label">S3</text>
  <text x="172" y="304" class="small">DAG/code bucket</text>

  <line x1="185" y1="160" x2="225" y2="160" class="arrow"/>
  <line x1="290" y1="195" x2="240" y2="255" class="arrow"/>

  <!-- MWAA -->
  <rect x="460" y="190" width="165" height="85" class="box"/>
  <text x="497" y="220" class="label">MWAA</text>
  <text x="483" y="243" class="text">Apache Airflow</text>
  <text x="480" y="263" class="small">runs DAG workflow</text>

  <line x1="290" y1="292" x2="460" y2="232" class="arrow"/>

  <!-- Kinesis -->
  <rect x="655" y="190" width="165" height="85" class="box"/>
  <text x="694" y="220" class="label">Kinesis</text>
  <text x="680" y="243" class="text">Data Stream</text>
  <text x="676" y="263" class="small">receives records</text>

  <line x1="625" y1="232" x2="655" y2="232" class="arrow"/>

  <!-- Firehose -->
  <rect x="885" y="105" width="175" height="85" class="box"/>
  <text x="933" y="135" class="label">Firehose</text>
  <text x="908" y="158" class="text">Delivery Stream</text>
  <text x="928" y="178" class="small">writes to S3</text>

  <line x1="820" y1="232" x2="885" y2="148" class="arrow"/>

  <!-- S3 output -->
  <rect x="885" y="285" width="175" height="85" class="box"/>
  <text x="955" y="315" class="label">S3</text>
  <text x="923" y="338" class="text">delivered data</text>
  <text x="930" y="358" class="small">query source</text>

  <line x1="972" y1="190" x2="972" y2="285" class="arrow"/>

  <!-- Athena -->
  <rect x="1095" y="285" width="115" height="85" class="box"/>
  <text x="1118" y="315" class="label">Athena</text>
  <text x="1113" y="338" class="small">SQL queries</text>

  <line x1="1060" y1="327" x2="1095" y2="327" class="arrow"/>

  <!-- Project flow text -->
  <text x="60" y="420" class="title">Project Flow</text>
  <text x="60" y="450" class="text">GitHub repo changes are deployed to S3 by CodePipeline. MWAA reads the DAG code from S3.</text>
  <text x="60" y="475" class="text">Airflow runs the DAG, sends API data to Kinesis, Firehose delivers it to S3, and Athena queries the S3 output.</text>
</svg>
