<svg width="1250" height="520" viewBox="0 0 1250 520" xmlns="http://www.w3.org/2000/svg">
  <style>
    .box { fill: #ffffff; stroke: #2f3a4a; stroke-width: 2; rx: 12; }
    .box2 { fill: #f6f8fa; stroke: #2f3a4a; stroke-width: 2; rx: 12; }
    .title { font-family: Arial, sans-serif; font-size: 20px; font-weight: 700; fill: #111827; }
    .text { font-family: Arial, sans-serif; font-size: 15px; fill: #374151; }
    .small { font-family: Arial, sans-serif; font-size: 13px; fill: #4b5563; }
    .arrow { stroke: #111827; stroke-width: 2.5; marker-end: url(#arrowhead); }
    .section { fill: #eef2ff; stroke: #4f46e5; stroke-width: 2; rx: 16; }
  </style>

  <defs>
    <marker id="arrowhead" markerWidth="10" markerHeight="7" refX="9" refY="3.5" orient="auto">
      <polygon points="0 0, 10 3.5, 0 7" fill="#111827" />
    </marker>
  </defs>

  <rect x="30" y="35" width="360" height="300" class="section"/>
  <text x="55" y="70" class="title">CI/CD DAG Deployment</text>

  <rect x="70" y="105" width="110" height="70" class="box"/>
  <text x="96" y="135" class="title">GitHub</text>
  <text x="83" y="158" class="small">airflow-dags repo</text>

  <rect x="220" y="105" width="130" height="70" class="box"/>
  <text x="244" y="135" class="title">CodePipeline</text>
  <text x="244" y="158" class="small">syncs repo</text>

  <rect x="145" y="235" width="150" height="70" class="box"/>
  <text x="180" y="265" class="title">S3</text>
  <text x="166" y="288" class="small">DAG/code bucket</text>

  <line x1="180" y1="140" x2="220" y2="140" class="arrow"/>
  <line x1="285" y1="175" x2="230" y2="235" class="arrow"/>

  <rect x="455" y="185" width="160" height="85" class="box2"/>
  <text x="496" y="218" class="title">MWAA</text>
  <text x="482" y="241" class="text">Apache Airflow</text>
  <text x="480" y="260" class="small">runs DAG workflow</text>

  <line x1="295" y1="270" x2="455" y2="228" class="arrow"/>

  <rect x="690" y="185" width="155" height="85" class="box2"/>
  <text x="718" y="218" class="title">Kinesis</text>
  <text x="714" y="241" class="text">Data Stream</text>
  <text x="712" y="260" class="small">receives records</text>

  <line x1="615" y1="228" x2="690" y2="228" class="arrow"/>

  <rect x="920" y="105" width="165" height="85" class="box2"/>
  <text x="950" y="138" class="title">Firehose</text>
  <text x="941" y="161" class="text">Delivery Stream</text>
  <text x="947" y="180" class="small">writes to S3</text>

  <line x1="845" y1="228" x2="920" y2="148" class="arrow"/>

  <rect x="920" y="275" width="165" height="85" class="box2"/>
  <text x="973" y="308" class="title">S3</text>
  <text x="940" y="331" class="text">delivered data</text>
  <text x="952" y="350" class="small">query source</text>

  <line x1="1003" y1="190" x2="1003" y2="275" class="arrow"/>

  <rect x="1110" y="275" width="110" height="85" class="box2"/>
  <text x="1135" y="308" class="title">Athena</text>
  <text x="1130" y="331" class="small">SQL queries</text>

  <line x1="1085" y1="318" x2="1110" y2="318" class="arrow"/>

  <text x="55" y="400" class="title">Project Flow</text>
  <text x="55" y="430" class="text">GitHub repo changes are deployed to S3 by CodePipeline. MWAA reads the DAG code from S3.</text>
  <text x="55" y="455" class="text">Airflow runs the DAG, sends API data to Kinesis, Firehose delivers it to S3, and Athena queries the S3 output.</text>
</svg>
